<?xml version="1.0" encoding="UTF-8" standalone="no"?>
<!DOCTYPE svg PUBLIC "-//W3C//DTD SVG 1.1//EN" "http://www.w3.org/Graphics/SVG/1.1/DTD/svg11.dtd">
<svg width="100%" height="100%" viewBox="0 0 258 219" version="1.1" xmlns="http://www.w3.org/2000/svg" xmlns:xlink="http://www.w3.org/1999/xlink" xml:space="preserve" xmlns:serif="http://www.serif.com/" style="fill-rule:evenodd;clip-rule:evenodd;stroke-linejoin:round;stroke-miterlimit:2;">
    <g transform="matrix(1,0,0,1,-765.379,-937.506)">
        <g id="design" transform="matrix(0.524689,0,0,0.524689,893.961,1046.32)">
            <g transform="matrix(1,0,0,1,-256,-256)">
                <path d="M493.6,413.392L457.6,413.392L457.6,179.288C457.582,163.934 444.954,151.306 429.6,151.288L409.488,151.288L409.488,79.096C409.488,72.513 404.071,67.096 397.488,67.096L130.508,67.096C123.925,67.096 118.508,72.513 118.508,79.096L118.508,151.288L98.4,151.288C83.046,151.306 70.418,163.934 70.4,179.288L70.4,413.392L34.42,413.392C32.226,413.392 30.42,415.198 30.42,417.392L30.42,433.124C30.438,448.357 42.967,460.886 58.2,460.904L469.8,460.904C485.036,460.891 497.57,448.36 497.588,433.124L497.588,417.392C497.588,415.202 495.79,413.399 493.6,413.392Z" style="fill:rgb(230,231,232);fill-rule:nonzero;"/>
                <path d="M437.6,401.392L437.6,163.288C437.6,150.122 426.766,139.288 413.6,139.288L82.4,139.288C69.234,139.288 58.4,150.122 58.4,163.288L58.4,401.392L437.6,401.392Z" style="fill:rgb(151,233,233);fill-rule:nonzero;"/>
                <path d="M401.6,139.288L413.6,139.288C426.766,139.288 437.6,150.122 437.6,163.288L437.6,401.392L425.6,401.392L425.6,163.288C425.6,150.122 414.766,139.288 401.6,139.288Z" style="fill:white;fill-rule:nonzero;"/>
                <path d="M409.488,401.392L409.488,182.636C409.488,178.247 405.877,174.636 401.488,174.636L94.508,174.636C90.119,174.636 86.508,178.247 86.508,182.636L86.508,401.392L409.488,401.392Z" style="fill:white;fill-rule:nonzero;"/>
                <path d="M18.42,401.392L18.42,417.124C18.42,430.169 29.155,440.904 42.2,440.904L453.8,440.904C453.801,440.904 453.803,440.904 453.804,440.904C466.85,440.904 477.586,430.17 477.588,417.124L477.588,401.392L18.42,401.392Z" style="fill:rgb(0,128,128);fill-rule:nonzero;"/>
                <path d="M18.42,401.392L18.42,417.124C18.42,430.169 29.155,440.904 42.2,440.904L453.8,440.904C453.801,440.904 453.803,440.904 453.804,440.904C466.85,440.904 477.586,430.17 477.588,417.124L477.588,401.392L18.42,401.392Z" style="fill:rgb(0,128,128);fill-rule:nonzero;"/>
                <path d="M171.796,401.392L171.796,409.356C171.796,415.959 177.229,421.392 183.832,421.392L312.164,421.392C318.767,421.392 324.202,415.959 324.204,409.356L324.204,401.392L171.796,401.392Z" style="fill:rgb(151,233,233);fill-rule:nonzero;"/>
                <path d="M389.488,401.392L389.488,63.096C389.488,58.707 385.877,55.096 381.488,55.096L114.508,55.096C110.119,55.096 106.508,58.707 106.508,63.096L106.508,401.392L389.488,401.392Z" style="fill:white;fill-rule:nonzero;"/>
                <path d="M166.772,157.976L181.348,218.872L227.68,172.54L166.772,157.976Z" style="fill:rgb(151,233,233);fill-rule:nonzero;"/>
                <g transform="matrix(0.707,-0.707,0.707,0.707,-83.136,213.164)">
                    <rect x="182.984" y="191.056" width="65.52" height="31.756" style="fill:rgb(0,128,128);fill-rule:nonzero;"/>
                </g>
                <path d="M346.14,291L292.192,237.056L245.864,283.384L299.808,337.328C302.066,339.588 305.133,340.859 308.328,340.859C311.523,340.859 314.59,339.588 316.848,337.328L346.14,308.04C350.812,303.365 350.812,295.675 346.14,291Z" style="fill:rgb(0,128,128);fill-rule:nonzero;"/>
                <path d="M288.536,326.056L299.808,337.328C302.066,339.588 305.133,340.859 308.328,340.859C311.523,340.859 314.59,339.588 316.848,337.328L346.14,308.04C350.812,303.365 350.812,295.675 346.14,291L334.864,279.724L288.536,326.056Z" style="fill:rgb(255,169,206);fill-rule:nonzero;"/>
                <g transform="matrix(0.707,0.707,-0.707,0.707,243.076,-102.156)">
                    <rect x="215.112" y="132.752" width="59.48" height="219.176" style="fill:rgb(212,251,255);fill-rule:nonzero;"/>
                </g>
                <g>
                    <path d="M477.6,397.392L441.6,397.392L441.6,163.288C441.582,147.934 428.954,135.306 413.6,135.288L393.488,135.288L393.488,63.096C393.488,56.513 388.071,51.096 381.488,51.096L286,51.096C283.806,51.096 282,52.902 282,55.096C282,57.29 283.806,59.096 286,59.096L381.488,59.096C383.682,59.096 385.488,60.902 385.488,63.096L385.488,397.392L110.512,397.392L110.512,63.096C110.512,60.902 112.318,59.096 114.512,59.096L195.28,59.096C197.474,59.096 199.28,57.29 199.28,55.096C199.28,52.902 197.474,51.096 195.28,51.096L114.512,51.096C107.929,51.096 102.512,56.513 102.512,63.096L102.512,135.288L82.4,135.288C67.046,135.306 54.418,147.934 54.4,163.288L54.4,397.392L18.42,397.392C16.226,397.392 14.42,399.198 14.42,401.392L14.42,417.124C14.435,432.358 26.966,444.889 42.2,444.904L453.8,444.904C469.036,444.891 481.57,432.36 481.588,417.124L481.588,401.392C481.588,399.202 479.79,397.399 477.6,397.392ZM413.6,143.288C424.567,143.301 433.587,152.321 433.6,163.288L433.6,397.392L413.484,397.392L413.484,182.636C413.484,176.053 408.067,170.636 401.484,170.636L393.484,170.636L393.484,143.288L413.6,143.288ZM90.512,397.392L90.512,182.636C90.512,180.442 92.318,178.636 94.512,178.636L102.512,178.636L102.512,397.392L90.512,397.392ZM405.488,397.392L393.488,397.392L393.488,178.636L401.488,178.636C403.682,178.636 405.488,180.442 405.488,182.636L405.488,397.392ZM62.4,163.288C62.413,152.321 71.433,143.301 82.4,143.288L102.516,143.288L102.516,170.636L94.516,170.636C87.933,170.636 82.516,176.053 82.516,182.636L82.516,397.392L62.4,397.392L62.4,163.288ZM473.6,417.124C473.587,427.973 464.661,436.895 453.812,436.904L42.2,436.904C31.353,436.893 22.431,427.971 22.42,417.124L22.42,405.392L473.6,405.392L473.6,417.124Z" style="fill:rgb(58,44,96);fill-rule:nonzero;"/>
                    <path d="M216,59.096L264.668,59.096C266.862,59.096 268.668,57.29 268.668,55.096C268.668,52.902 266.862,51.096 264.668,51.096L216,51.096C213.806,51.096 212,52.902 212,55.096C212,57.29 213.806,59.096 216,59.096Z" style="fill:rgb(58,44,96);fill-rule:nonzero;"/>
                    <path d="M346.2,188.704C347.751,187.152 347.751,184.6 346.2,183.048L304.14,140.992C302.588,139.441 300.036,139.441 298.484,140.992L250.136,189.34L230.508,169.712C229.986,169.189 229.328,168.822 228.608,168.652L167.7,154.084C167.402,154.014 167.097,153.979 166.791,153.979C164.596,153.979 162.791,155.785 162.791,157.979C162.791,158.292 162.827,158.604 162.9,158.908L177.48,219.804C177.616,220.368 192,235.004 198.188,241.308L143.504,295.972C141.953,297.524 141.953,300.076 143.504,301.628L185.56,343.688C187.112,345.239 189.664,345.239 191.216,343.688L245.864,289.04L296.98,340.16C303.211,346.375 313.449,346.375 319.68,340.16L348.964,310.868C351.975,307.861 353.668,303.775 353.668,299.52C353.668,295.265 351.975,291.179 348.964,288.172L297.848,237.056L346.2,188.704ZM174.752,174.136L182.936,165.952L219.796,174.752L183.576,210.972L174.752,174.136ZM187.008,218.872L227.68,178.196L244.48,194.996L203.808,235.672L187.008,218.872ZM188.4,335.2L152,298.8L301.312,149.476L337.712,185.876L325.392,198.196L316.716,189.516C315.971,188.796 314.974,188.393 313.937,188.393C311.743,188.393 309.937,190.199 309.937,192.393C309.937,193.43 310.34,194.427 311.06,195.172L319.736,203.852L313.488,210.1L309.572,206.18C308.827,205.46 307.83,205.057 306.793,205.057C304.599,205.057 302.793,206.863 302.793,209.057C302.793,210.094 303.196,211.091 303.916,211.836L307.832,215.756L301.6,222L292.92,213.324C292.167,212.544 291.127,212.103 290.043,212.103C287.849,212.103 286.043,213.909 286.043,216.103C286.043,217.187 286.484,218.227 287.264,218.98L295.944,227.66L289.696,233.904L285.776,229.988C285.031,229.268 284.034,228.865 282.997,228.865C280.803,228.865 278.997,230.671 278.997,232.865C278.997,233.902 279.4,234.899 280.12,235.644L284.04,239.564L277.792,245.808L269.112,237.132C268.361,236.382 267.342,235.96 266.28,235.96C264.082,235.96 262.274,237.768 262.274,239.966C262.274,241.029 262.696,242.049 263.448,242.8L272.128,251.476L265.88,257.712L261.964,253.796C261.219,253.076 260.222,252.673 259.185,252.673C256.991,252.673 255.185,254.479 255.185,256.673C255.185,257.71 255.588,258.707 256.308,259.452L260.224,263.368L253.976,269.6L245.3,260.92C244.555,260.2 243.558,259.797 242.521,259.797C240.327,259.797 238.521,261.603 238.521,263.797C238.521,264.834 238.924,265.831 239.644,266.576L248.32,275.256L242.076,281.52L238.156,277.6C237.411,276.88 236.414,276.477 235.377,276.477C233.183,276.477 231.377,278.283 231.377,280.477C231.377,281.514 231.78,282.511 232.5,283.256L236.416,287.176L230.172,293.42L221.492,284.744C220.739,283.964 219.699,283.523 218.615,283.523C216.421,283.523 214.615,285.329 214.615,287.523C214.615,288.607 215.056,289.647 215.836,290.4L224.516,299.08L218.268,305.324L214.352,301.408C213.602,300.657 212.583,300.235 211.522,300.235C209.327,300.235 207.521,302.041 207.521,304.236C207.521,305.296 207.943,306.314 208.692,307.064L212.612,310.98L206.364,317.228L197.688,308.548C196.938,307.797 195.919,307.375 194.858,307.375C192.663,307.375 190.857,309.181 190.857,311.376C190.857,312.436 191.279,313.454 192.028,314.204L200.708,322.884L188.4,335.2ZM292.192,242.712L329.2,279.724L288.532,320.4L251.52,283.384L292.192,242.712ZM345.668,299.512C345.673,301.647 344.823,303.698 343.308,305.204L314.02,334.492C310.895,337.609 305.761,337.609 302.636,334.492L294.188,326.048L334.864,285.38L343.308,293.828C344.823,295.334 345.673,297.385 345.668,299.52L345.668,299.512Z" style="fill:rgb(58,44,96);fill-rule:nonzero;"/>
                </g>
            </g>
        </g>
    </g>
</svg>
