<?xml version="1.0" encoding="UTF-8" standalone="no"?>
<!DOCTYPE svg PUBLIC "-//W3C//DTD SVG 1.1//EN" "http://www.w3.org/Graphics/SVG/1.1/DTD/svg11.dtd">
<svg width="100%" height="100%" viewBox="0 0 233 237" version="1.1" xmlns="http://www.w3.org/2000/svg" xmlns:xlink="http://www.w3.org/1999/xlink" xml:space="preserve" xmlns:serif="http://www.serif.com/" style="fill-rule:evenodd;clip-rule:evenodd;stroke-linejoin:round;stroke-miterlimit:2;">
    <g transform="matrix(1,0,0,1,-456.444,-928.023)">
        <g id="front-end" transform="matrix(0.472062,0,0,0.472062,572.829,1046.32)">
            <g transform="matrix(1,0,0,1,-256,-256)">
                <path d="M477.348,52.604L268,52.604L268,29C268,26.806 266.194,25 264,25C261.806,25 260,26.806 260,29L260,52.6L50.652,52.6C39.685,52.613 30.665,61.633 30.652,72.6L30.652,455.4C30.665,466.367 39.685,475.387 50.652,475.4L260,475.4L260,499C260,501.194 261.806,503 264,503C266.194,503 268,501.194 268,499L268,475.4L477.348,475.4C488.315,475.387 497.335,466.367 497.348,455.4L497.348,72.6C497.333,61.635 488.313,52.617 477.348,52.604Z" style="fill:rgb(230,231,232);fill-rule:nonzero;"/>
                <path d="M18.652,104.652L477.348,104.652L477.348,439.4C477.348,448.177 470.125,455.4 461.348,455.4L34.652,455.4C25.875,455.4 18.652,448.177 18.652,439.4L18.652,104.652Z" style="fill:white;fill-rule:nonzero;"/>
                <path d="M248,455.396L461.348,455.396C470.125,455.396 477.348,448.173 477.348,439.396L477.348,104.652L248,104.652L248,455.396Z" style="fill:rgb(151,233,233);fill-rule:nonzero;"/>
                <path d="M18.652,56.604L18.652,104.652L477.348,104.652L477.348,56.604C477.348,47.827 470.125,40.604 461.348,40.604L34.652,40.604C25.875,40.604 18.652,47.827 18.652,56.604Z" style="fill:rgb(146,208,250);fill-rule:nonzero;"/>
                <path d="M461.348,40.604L248,40.604L248,104.652L477.348,104.652L477.348,56.604C477.348,47.827 470.125,40.604 461.348,40.604Z" style="fill:rgb(0,128,128);fill-rule:nonzero;"/>
                <path d="M461.348,40.604L34.652,40.604C25.875,40.604 18.652,47.827 18.652,56.604L18.652,68.604C18.652,59.827 25.875,52.604 34.652,52.604L461.348,52.604C470.125,52.604 477.348,59.827 477.348,68.604L477.348,56.604C477.348,47.827 470.125,40.604 461.348,40.604Z" style="fill:white;fill-rule:nonzero;"/>
                <circle cx="161.124" cy="74.316" r="13.028" style="fill:white;"/>
                <circle cx="113.8" cy="74.316" r="13.028" style="fill:rgb(212,251,255);"/>
                <circle cx="66.472" cy="74.316" r="13.028" style="fill:rgb(0,128,128);"/>
                <path d="M171.284,242L144.048,242C141.854,242 140.048,240.194 140.048,238C140.048,235.806 141.854,234 144.048,234L171.284,234C173.478,234 175.284,235.806 175.284,238C175.284,240.194 173.478,242 171.284,242Z" style="fill:rgb(0,128,128);fill-rule:nonzero;"/>
                <path d="M120.048,242L52.716,242C50.522,242 48.716,240.194 48.716,238C48.716,235.806 50.522,234 52.716,234L120.048,234C122.242,234 124.048,235.806 124.048,238C124.048,240.194 122.242,242 120.048,242Z" style="fill:rgb(0,128,128);fill-rule:nonzero;"/>
                <path d="M171.284,326L130.048,326C127.854,326 126.048,324.194 126.048,322C126.048,319.806 127.854,318 130.048,318L171.284,318C173.478,318 175.284,319.806 175.284,322C175.284,324.194 173.478,326 171.284,326Z" style="fill:rgb(0,128,128);fill-rule:nonzero;"/>
                <path d="M114.048,326L52.716,326C50.522,326 48.716,324.194 48.716,322C48.716,319.806 50.522,318 52.716,318L114.048,318C116.242,318 118.048,319.806 118.048,322C118.048,324.194 116.242,326 114.048,326Z" style="fill:rgb(0,128,128);fill-rule:nonzero;"/>
                <path d="M171.284,410L130.048,410C127.854,410 126.048,408.194 126.048,406C126.048,403.806 127.854,402 130.048,402L171.284,402C173.478,402 175.284,403.806 175.284,406C175.284,408.194 173.478,410 171.284,410Z" style="fill:rgb(0,128,128);fill-rule:nonzero;"/>
                <path d="M114.048,410L52.716,410C50.522,410 48.716,408.194 48.716,406C48.716,403.806 50.522,402 52.716,402L114.048,402C116.242,402 118.048,403.806 118.048,406C118.048,408.194 116.242,410 114.048,410Z" style="fill:rgb(0,128,128);fill-rule:nonzero;"/>
                <g transform="matrix(0,1,-1,0,540.672,-179.328)">
                    <path d="M399.2,104.768C399.2,100.353 395.615,96.768 391.2,96.768L328.8,96.768C324.385,96.768 320.8,100.353 320.8,104.768L320.8,256.58C320.8,260.995 324.385,264.58 328.8,264.58L391.2,264.58C395.615,264.58 399.2,260.995 399.2,256.58L399.2,104.768Z" style="fill:rgb(0,128,128);"/>
                </g>
                <g transform="matrix(0,1,-1,0,659.208,-60.792)">
                    <path d="M417.632,223.3C417.632,218.885 414.047,215.3 409.632,215.3L310.364,215.3C305.949,215.3 302.364,218.885 302.364,223.3L302.364,375.112C302.364,379.527 305.949,383.112 310.364,383.112L409.632,383.112C414.047,383.112 417.632,379.527 417.632,375.112L417.632,223.3Z" style="fill:white;"/>
                </g>
                <g>
                    <path d="M89.692,202.044C91.076,202.081 92.416,201.542 93.388,200.556C94.386,199.552 94.925,198.179 94.876,196.764C94.883,195.895 94.632,195.043 94.156,194.316C93.652,193.562 92.933,192.977 92.092,192.636L60.7,180.06L92.092,167.484C93.815,166.86 94.95,165.188 94.892,163.356C94.947,161.964 94.426,160.609 93.452,159.612C92.487,158.65 91.166,158.129 89.804,158.172C88.842,158.182 87.891,158.379 87.004,158.752L53.116,172.576C51.59,173.154 50.281,174.193 49.372,175.548C48.48,176.882 48.011,178.455 48.028,180.06C47.996,181.682 48.465,183.275 49.372,184.62C50.307,185.964 51.606,187.013 53.116,187.644L87.004,201.468C87.855,201.829 88.768,202.025 89.692,202.044Z" style="fill:rgb(58,44,96);fill-rule:nonzero;"/>
                    <path d="M105.052,214.8C106.233,214.81 107.389,214.458 108.364,213.792C109.392,213.065 110.124,211.991 110.424,210.768L132.508,141.652C132.69,141.001 132.786,140.328 132.792,139.652C132.824,138.192 132.189,136.795 131.068,135.86C129.954,134.883 128.517,134.353 127.036,134.372C124.551,134.362 122.346,136.013 121.656,138.4L99.656,207.52C99.47,208.171 99.373,208.843 99.368,209.52C99.334,210.981 99.97,212.38 101.092,213.316C102.182,214.284 103.594,214.813 105.052,214.8Z" style="fill:rgb(58,44,96);fill-rule:nonzero;"/>
                    <path d="M138.124,194.316C137.648,195.043 137.397,195.895 137.404,196.764C137.355,198.179 137.894,199.552 138.892,200.556C139.863,201.542 141.201,202.081 142.584,202.044C143.509,202.025 144.421,201.83 145.272,201.468L179.164,187.644C180.674,187.012 181.972,185.963 182.908,184.62C183.813,183.274 184.282,181.681 184.248,180.06C184.266,178.456 183.799,176.882 182.908,175.548C181.998,174.194 180.689,173.155 179.164,172.576L145.272,158.752C144.385,158.378 143.434,158.181 142.472,158.172C141.11,158.129 139.789,158.65 138.824,159.612C137.85,160.609 137.329,161.964 137.384,163.356C137.326,165.188 138.461,166.86 140.184,167.484L171.6,180.06L140.208,192.636C139.359,192.971 138.632,193.557 138.124,194.316Z" style="fill:rgb(58,44,96);fill-rule:nonzero;"/>
                    <path d="M477.348,167.916C475.154,167.916 473.348,169.722 473.348,171.916L473.348,206C473.348,208.194 475.154,210 477.348,210C479.542,210 481.348,208.194 481.348,206L481.348,171.916C481.348,169.722 479.542,167.916 477.348,167.916Z" style="fill:rgb(58,44,96);fill-rule:nonzero;"/>
                    <path d="M461.348,36.604L252,36.604L252,13C252,10.806 250.194,9 248,9C245.806,9 244,10.806 244,13L244,36.6L34.652,36.6C23.685,36.613 14.665,45.633 14.652,56.6L14.652,439.4C14.665,450.367 23.685,459.387 34.652,459.4L244,459.4L244,483C244,485.194 245.806,487 248,487C250.194,487 252,485.194 252,483L252,459.4L461.348,459.4C472.315,459.387 481.335,450.367 481.348,439.4L481.348,222.668C481.348,220.474 479.542,218.668 477.348,218.668C475.154,218.668 473.348,220.474 473.348,222.668L473.348,439.396C473.348,445.979 467.931,451.396 461.348,451.396L252,451.396L252,108.652L473.348,108.652L473.348,154.172C473.348,156.366 475.154,158.172 477.348,158.172C479.542,158.172 481.348,156.366 481.348,154.172L481.348,56.604C481.335,45.637 472.315,36.617 461.348,36.604ZM22.652,56.604C22.652,50.021 28.069,44.604 34.652,44.604L244,44.604L244,100.652L22.652,100.652L22.652,56.604ZM34.652,451.404C28.069,451.404 22.652,445.987 22.652,439.404L22.652,108.652L244,108.652L244,262L206.044,262C203.85,262 202.044,263.806 202.044,266C202.044,268.194 203.85,270 206.044,270L244,270L244,290L80.716,290C78.522,290 76.716,291.806 76.716,294C76.716,296.194 78.522,298 80.716,298L244,298L244,346L166.044,346C163.85,346 162.044,347.806 162.044,350C162.044,352.194 163.85,354 166.044,354L244,354L244,374L190.4,374C188.206,374 186.4,375.806 186.4,378C186.4,380.194 188.206,382 190.4,382L244,382L244,451.396L34.652,451.404ZM252,100.652L252,44.604L461.348,44.604C467.931,44.604 473.348,50.021 473.348,56.604L473.348,100.652L252,100.652Z" style="fill:rgb(58,44,96);fill-rule:nonzero;"/>
                    <path d="M181.38,262L80.716,262C78.522,262 76.716,263.806 76.716,266C76.716,268.194 78.522,270 80.716,270L181.38,270C183.574,270 185.38,268.194 185.38,266C185.38,263.806 183.574,262 181.38,262Z" style="fill:rgb(58,44,96);fill-rule:nonzero;"/>
                    <path d="M80.716,354L141.38,354C143.574,354 145.38,352.194 145.38,350C145.38,347.806 143.574,346 141.38,346L80.716,346C78.522,346 76.716,347.806 76.716,350C76.716,352.194 78.522,354 80.716,354Z" style="fill:rgb(58,44,96);fill-rule:nonzero;"/>
                    <path d="M170.048,374L80.716,374C78.522,374 76.716,375.806 76.716,378C76.716,380.194 78.522,382 80.716,382L170.048,382C172.242,382 174.048,380.194 174.048,378C174.048,375.806 172.242,374 170.048,374Z" style="fill:rgb(58,44,96);fill-rule:nonzero;"/>
                    <path d="M447.908,149.472C447.908,142.889 442.491,137.472 435.908,137.472L284.096,137.472C277.513,137.472 272.096,142.889 272.096,149.472L272.096,211.872C272.096,218.455 277.513,223.872 284.096,223.872L435.908,223.872C442.491,223.872 447.908,218.455 447.908,211.872L447.908,149.472ZM439.908,211.872C439.908,214.066 438.102,215.872 435.908,215.872L284.096,215.872C281.902,215.872 280.096,214.066 280.096,211.872L280.096,149.472C280.096,147.278 281.902,145.472 284.096,145.472L435.908,145.472C438.102,145.472 439.908,147.278 439.908,149.472L439.908,211.872Z" style="fill:rgb(58,44,96);fill-rule:nonzero;"/>
                    <path d="M447.908,348.84L447.908,249.572C447.908,242.989 442.491,237.572 435.908,237.572L284.096,237.572C277.513,237.572 272.096,242.989 272.096,249.572L272.096,348.84C272.096,355.423 277.513,360.84 284.096,360.84L435.908,360.84C442.491,360.84 447.908,355.423 447.908,348.84ZM284.096,245.572L435.908,245.572C438.102,245.572 439.908,247.378 439.908,249.572L439.908,310.876L418.332,295.416C416.872,294.368 414.876,294.427 413.48,295.56L391.22,313.6L335.044,272.116C333.616,271.065 331.652,271.083 330.244,272.16L280.104,310.56L280.104,249.572C280.104,247.381 281.905,245.576 284.096,245.572ZM435.908,352.84L284.096,352.84C281.902,352.84 280.096,351.034 280.096,348.84L280.096,320.64L332.708,280.34L388.956,321.884C390.418,322.963 392.441,322.917 393.852,321.772L416.152,303.696L439.908,320.72L439.908,348.84C439.908,351.034 438.102,352.84 435.908,352.84Z" style="fill:rgb(58,44,96);fill-rule:nonzero;"/>
                    <path d="M389,290.332C398.875,290.332 407,282.207 407,272.332C407,262.457 398.875,254.332 389,254.332C379.125,254.332 371,262.457 371,272.332C371,282.207 379.125,290.332 389,290.332ZM389,262.332C394.486,262.332 399,266.846 399,272.332C399,277.818 394.486,282.332 389,282.332C383.514,282.332 379,277.818 379,272.332C379,266.846 383.514,262.332 389,262.332Z" style="fill:rgb(58,44,96);fill-rule:nonzero;"/>
                    <path d="M437.164,380.8L282.84,380.8C280.646,380.8 278.84,382.606 278.84,384.8C278.84,386.994 280.646,388.8 282.84,388.8L437.164,388.8C439.358,388.8 441.164,386.994 441.164,384.8C441.164,382.606 439.358,380.8 437.164,380.8Z" style="fill:rgb(58,44,96);fill-rule:nonzero;"/>
                    <path d="M437.164,414.528L282.84,414.528C280.646,414.528 278.84,416.334 278.84,418.528C278.84,420.722 280.646,422.528 282.84,422.528L437.164,422.528C439.358,422.528 441.164,420.722 441.164,418.528C441.164,416.334 439.358,414.528 437.164,414.528Z" style="fill:rgb(58,44,96);fill-rule:nonzero;"/>
                </g>
            </g>
        </g>
    </g>
</svg>
