<?xml version="1.0" encoding="UTF-8" standalone="no"?>
<!DOCTYPE svg PUBLIC "-//W3C//DTD SVG 1.1//EN" "http://www.w3.org/Graphics/SVG/1.1/DTD/svg11.dtd">
<svg width="100%" height="100%" viewBox="0 0 220 220" version="1.1" xmlns="http://www.w3.org/2000/svg" xmlns:xlink="http://www.w3.org/1999/xlink" xml:space="preserve" xmlns:serif="http://www.serif.com/" style="fill-rule:evenodd;clip-rule:evenodd;stroke-linejoin:round;stroke-miterlimit:2;">
    <g transform="matrix(1,0,0,1,-1090.6,-942.599)">
        <g id="shapes-and-symbols" transform="matrix(0.443544,0,0,0.443544,1200.32,1052.32)">
            <g transform="matrix(1,0,0,1,-256,-256)">
                <path d="M259.232,65.168C259.232,45.299 243.101,29.168 223.232,29.168L65.572,29.168C45.703,29.168 29.572,45.299 29.572,65.168L29.572,222.832C29.572,242.701 45.703,258.832 65.572,258.832L223.232,258.832C243.101,258.832 259.232,242.701 259.232,222.832L259.232,65.168Z" style="fill:rgb(230,231,232);"/>
                <path d="M498.428,65.168C498.428,45.299 482.297,29.168 462.428,29.168L304.768,29.168C284.899,29.168 268.768,45.299 268.768,65.168L268.768,222.832C268.768,242.701 284.899,258.832 304.768,258.832L462.428,258.832C482.297,258.832 498.428,242.701 498.428,222.832L498.428,65.168Z" style="fill:rgb(230,231,232);"/>
                <path d="M498.428,305.168C498.428,285.299 482.297,269.168 462.428,269.168L304.768,269.168C284.899,269.168 268.768,285.299 268.768,305.168L268.768,462.832C268.768,482.701 284.899,498.832 304.768,498.832L462.428,498.832C482.297,498.832 498.428,482.701 498.428,462.832L498.428,305.168Z" style="fill:rgb(230,231,232);"/>
                <path d="M259.232,305.168C259.232,285.299 243.101,269.168 223.232,269.168L65.572,269.168C45.703,269.168 29.572,285.299 29.572,305.168L29.572,462.832C29.572,482.701 45.703,498.832 65.572,498.832L223.232,498.832C243.101,498.832 259.232,482.701 259.232,462.832L259.232,305.168Z" style="fill:rgb(230,231,232);"/>
                <path d="M239.228,49.168C239.228,31.507 224.889,17.168 207.228,17.168L49.568,17.168C31.907,17.168 17.568,31.507 17.568,49.168L17.568,206.828C17.568,224.489 31.907,238.828 49.568,238.828L207.228,238.828C224.889,238.828 239.228,224.489 239.228,206.828L239.228,49.168Z" style="fill:rgb(0,128,128);"/>
                <path d="M167.1,104.436L166.8,104.436C169.192,99.059 170.428,93.239 170.428,87.354C170.428,64.298 151.456,45.326 128.4,45.326C105.344,45.326 86.372,64.298 86.372,87.354C86.372,93.239 87.608,99.059 90,104.436L89.7,104.436C89.679,104.436 89.658,104.436 89.637,104.436C66.579,104.436 47.605,123.41 47.605,146.468C47.605,169.526 66.579,188.5 89.637,188.5C102.975,188.5 115.547,182.151 123.464,171.416C113.364,190.272 100.928,205.016 92.088,210.616L164.712,210.616C155.872,204.996 143.44,190.272 133.336,171.416C141.25,182.113 153.794,188.436 167.1,188.436C190.14,188.436 209.1,169.477 209.1,146.436C209.1,123.396 190.14,104.436 167.1,104.436Z" style="fill:rgb(230,231,232);fill-rule:nonzero;"/>
                <path d="M478.432,49.168C478.432,31.507 464.093,17.168 446.432,17.168L288.768,17.168C271.107,17.168 256.768,31.507 256.768,49.168L256.768,206.832C256.768,224.493 271.107,238.832 288.768,238.832L446.432,238.832C464.093,238.832 478.432,224.493 478.432,206.832L478.432,49.168Z" style="fill:white;"/>
                <path d="M437.824,114.712L429.92,106.8L367.6,44.488L305.28,106.8L297.376,114.704C289.115,122.965 284.469,134.181 284.469,145.864C284.469,170.038 304.36,189.929 328.534,189.929C340.216,189.929 351.431,185.284 359.692,177.024L360.492,176.224C350.82,193.192 339.488,206.288 331.292,211.516L403.916,211.516C395.696,206.288 384.368,193.192 374.716,176.224L375.516,177.024C383.759,185.151 394.88,189.711 406.455,189.711C430.63,189.711 450.523,169.818 450.523,145.643C450.523,134.068 445.963,122.947 437.836,114.704L437.824,114.712Z" style="fill:rgb(151,233,233);fill-rule:nonzero;"/>
                <path d="M478.432,289.168C478.432,271.507 464.093,257.168 446.432,257.168L288.768,257.168C271.107,257.168 256.768,271.507 256.768,289.168L256.768,446.832C256.768,464.493 271.107,478.832 288.768,478.832L446.432,478.832C464.093,478.832 478.432,464.493 478.432,446.832L478.432,289.168Z" style="fill:rgb(151,233,233);"/>
                <path d="M446.432,257.168L434.432,257.168C451.987,257.168 466.432,271.613 466.432,289.168L466.432,446.832C466.432,464.387 451.987,478.832 434.432,478.832L446.432,478.832C463.987,478.832 478.432,464.387 478.432,446.832L478.432,289.168C478.432,271.613 463.987,257.168 446.432,257.168Z" style="fill:white;fill-rule:nonzero;"/>
                <path d="M367.6,451.512L308.076,368L367.6,284.488L427.124,368L367.6,451.512Z" style="fill:rgb(230,231,232);fill-rule:nonzero;"/>
                <path d="M239.228,289.168C239.228,271.507 224.889,257.168 207.228,257.168L49.568,257.168C31.907,257.168 17.568,271.507 17.568,289.168L17.568,446.828C17.568,464.489 31.907,478.828 49.568,478.828L207.228,478.828C224.889,478.828 239.228,464.489 239.228,446.828L239.228,289.168Z" style="fill:rgb(146,208,250);"/>
                <path d="M133.476,305.352L128.4,310.428L123.32,305.352C114.342,296.577 102.275,291.659 89.721,291.659C63.352,291.659 41.653,313.358 41.653,339.727C41.653,352.282 46.572,364.35 55.348,373.328L125.576,443.556C127.128,445.107 129.68,445.107 131.232,443.556L201.452,373.328C210.288,364.341 215.245,352.23 215.245,339.627C215.245,313.257 193.547,291.559 167.177,291.559C154.574,291.559 142.463,296.516 133.476,305.352Z" style="fill:rgb(151,233,233);fill-rule:nonzero;"/>
                <g>
                    <path d="M207.232,13.168L149,13.168C146.806,13.168 145,14.974 145,17.168C145,19.362 146.806,21.168 149,21.168L207.232,21.168C222.585,21.188 235.212,33.815 235.232,49.168L235.232,206.832C235.212,222.185 222.585,234.812 207.232,234.832L49.572,234.832C34.218,234.814 21.59,222.186 21.572,206.832L21.572,49.168C21.59,33.814 34.218,21.186 49.572,21.168L81.5,21.168C83.694,21.168 85.5,19.362 85.5,17.168C85.5,14.974 83.694,13.168 81.5,13.168L49.572,13.168C29.831,13.19 13.594,29.427 13.572,49.168L13.572,206.832C13.594,226.573 29.831,242.81 49.572,242.832L207.232,242.832C226.973,242.81 243.21,226.573 243.232,206.832L243.232,49.168C243.21,29.427 226.973,13.19 207.232,13.168Z" style="fill:rgb(58,44,96);fill-rule:nonzero;"/>
                    <path d="M97.5,21.168L132.5,21.168C134.694,21.168 136.5,19.362 136.5,17.168C136.5,14.974 134.694,13.168 132.5,13.168L97.5,13.168C95.306,13.168 93.5,14.974 93.5,17.168C93.5,19.362 95.306,21.168 97.5,21.168Z" style="fill:rgb(58,44,96);fill-rule:nonzero;"/>
                    <path d="M128.4,41.384C103.159,41.412 82.398,62.175 82.372,87.416C82.374,91.933 83.049,96.425 84.372,100.744C61.313,103.472 43.744,123.241 43.744,146.461C43.744,171.716 64.526,192.497 89.78,192.497C95.973,192.497 102.102,191.248 107.8,188.824C102.919,195.906 96.891,202.125 89.964,207.224C88.814,207.958 88.116,209.232 88.116,210.596C88.116,212.787 89.917,214.592 92.108,214.596L164.712,214.596C166.905,214.594 168.708,212.789 168.708,210.596C168.708,209.232 168.01,207.958 166.86,207.224C159.933,202.124 153.903,195.906 149.02,188.824C154.733,191.262 160.882,192.52 167.094,192.52C192.353,192.52 213.138,171.735 213.138,146.476C213.138,123.231 195.535,103.447 172.448,100.744C173.765,96.424 174.432,91.932 174.428,87.416C174.402,62.175 153.641,41.412 128.4,41.384ZM205.128,146.464C205.104,167.319 187.951,184.472 167.096,184.496C155.035,184.534 143.662,178.779 136.548,169.04C135.795,168.014 134.596,167.406 133.323,167.406C131.129,167.406 129.323,169.212 129.323,171.406C129.323,172.07 129.488,172.724 129.804,173.308C136.161,185.471 144.193,196.683 153.664,206.616L103.132,206.616C112.605,196.685 120.637,185.473 126.992,173.308C127.308,172.724 127.473,172.07 127.473,171.406C127.473,169.212 125.667,167.406 123.473,167.406C122.2,167.406 121.001,168.014 120.248,169.04C113.134,178.779 101.761,184.534 89.7,184.496C68.948,184.333 51.963,167.214 51.963,146.461C51.963,125.77 68.847,108.68 89.536,108.428C91.035,108.539 92.487,107.855 93.356,106.628C94.093,105.494 94.206,104.06 93.656,102.824C91.488,97.977 90.369,92.726 90.372,87.416C90.372,66.554 107.538,49.388 128.4,49.388C149.262,49.388 166.428,66.554 166.428,87.416C166.431,92.726 165.312,97.977 163.144,102.824C162.917,103.335 162.799,103.889 162.799,104.448C162.799,106.642 164.605,108.448 166.799,108.448L167.2,108.448C188.011,108.527 205.099,125.653 205.132,146.464L205.128,146.464Z" style="fill:rgb(58,44,96);fill-rule:nonzero;"/>
                    <path d="M446.428,13.168L288.768,13.168C269.027,13.19 252.79,29.427 252.768,49.168L252.768,206.832C252.79,226.573 269.027,242.81 288.768,242.832L446.428,242.832C466.169,242.81 482.406,226.573 482.428,206.832L482.428,49.168C482.406,29.427 466.169,13.19 446.428,13.168ZM474.428,206.832C474.41,222.186 461.782,234.814 446.428,234.832L288.768,234.832C273.415,234.812 260.788,222.185 260.768,206.832L260.768,49.168C260.788,33.815 273.415,21.188 288.768,21.168L446.428,21.168C461.782,21.186 474.41,33.814 474.428,49.168L474.428,206.832Z" style="fill:rgb(58,44,96);fill-rule:nonzero;"/>
                    <path d="M370.424,41.66C368.846,40.168 366.346,40.168 364.768,41.66L294.548,111.884C285.562,120.896 280.511,133.116 280.511,145.843C280.511,172.227 302.223,193.939 328.607,193.939C334.692,193.939 340.722,192.784 346.376,190.536C341.644,197.315 335.821,203.262 329.144,208.136C327.99,208.869 327.289,210.145 327.289,211.512C327.289,213.706 329.094,215.511 331.288,215.512L403.912,215.512C406.106,215.511 407.911,213.706 407.911,211.512C407.911,210.145 407.21,208.869 406.056,208.136C399.367,203.25 393.536,197.288 388.8,190.492C394.486,192.771 400.556,193.942 406.681,193.942C433.048,193.942 454.745,172.245 454.745,145.878C454.745,133.132 449.675,120.895 440.66,111.884L370.424,41.66ZM434.996,174.204C419.444,189.725 393.884,189.725 378.332,174.204L377.532,173.404C376.783,172.661 375.77,172.243 374.715,172.243C372.52,172.243 370.715,174.049 370.715,176.243C370.715,176.93 370.891,177.605 371.228,178.204C377.152,188.864 384.427,198.717 392.872,207.516L342.34,207.516C350.789,198.715 358.069,188.862 364,178.2C364.337,177.601 364.513,176.926 364.513,176.239C364.513,174.045 362.708,172.239 360.513,172.239C359.458,172.239 358.445,172.657 357.696,173.4L356.896,174.2C349.383,181.718 339.179,185.946 328.55,185.946C306.565,185.946 288.474,167.855 288.474,145.87C288.474,135.249 292.696,125.052 300.204,117.54L367.6,50.144L435,117.54C450.542,133.083 450.542,158.661 435,174.204L434.996,174.204Z" style="fill:rgb(58,44,96);fill-rule:nonzero;"/>
                    <path d="M446.428,253.168L288.768,253.168C269.027,253.19 252.79,269.427 252.768,289.168L252.768,446.832C252.79,466.573 269.027,482.81 288.768,482.832L446.428,482.832C466.169,482.81 482.406,466.573 482.428,446.832L482.428,289.168C482.406,269.427 466.169,253.19 446.428,253.168ZM474.428,446.832C474.41,462.186 461.782,474.814 446.428,474.832L288.768,474.832C273.415,474.812 260.788,462.185 260.768,446.832L260.768,289.168C260.788,273.815 273.415,261.188 288.768,261.168L446.428,261.168C461.782,261.186 474.41,273.814 474.428,289.168L474.428,446.832Z" style="fill:rgb(58,44,96);fill-rule:nonzero;"/>
                    <path d="M370.856,282.168C370.07,281.171 368.868,280.587 367.598,280.587C366.328,280.587 365.126,281.171 364.34,282.168L304.8,365.68C303.814,367.065 303.814,368.935 304.8,370.32L364.324,453.832C365.074,454.885 366.289,455.511 367.582,455.511C368.875,455.511 370.09,454.885 370.84,453.832L430.4,370.32C431.386,368.935 431.386,367.065 430.4,365.68L370.856,282.168ZM367.6,444.62L312.984,368L367.6,291.38L422.212,368L367.6,444.62Z" style="fill:rgb(58,44,96);fill-rule:nonzero;"/>
                    <path d="M207.232,253.168L49.572,253.168C29.831,253.19 13.594,269.427 13.572,289.168L13.572,446.832C13.594,466.573 29.831,482.81 49.572,482.832L207.232,482.832C226.973,482.81 243.21,466.573 243.232,446.832L243.232,289.168C243.21,269.427 226.973,253.19 207.232,253.168ZM235.232,446.832C235.212,462.185 222.585,474.812 207.232,474.832L49.572,474.832C34.218,474.814 21.59,462.186 21.572,446.832L21.572,289.168C21.59,273.814 34.218,261.186 49.572,261.168L207.232,261.168C222.585,261.188 235.212,273.815 235.232,289.168L235.232,446.832Z" style="fill:rgb(58,44,96);fill-rule:nonzero;"/>
                    <path d="M133.476,305.352L128.4,310.428L123.32,305.352C114.342,296.577 102.275,291.659 89.721,291.659C63.352,291.659 41.653,313.358 41.653,339.727C41.653,352.282 46.572,364.35 55.348,373.328L125.576,443.556C127.128,445.107 129.68,445.107 131.232,443.556L201.452,373.328C210.288,364.341 215.245,352.23 215.245,339.627C215.245,313.257 193.547,291.559 167.177,291.559C154.574,291.559 142.463,296.516 133.476,305.352ZM195.796,367.672L128.4,435.072L61,367.672C53.489,360.161 49.265,349.962 49.265,339.34C49.265,317.359 67.353,299.271 89.334,299.271C99.957,299.271 110.156,303.496 117.668,311.008L125.576,318.916C127.154,320.408 129.654,320.408 131.232,318.916L139.132,311.008C146.632,303.583 156.769,299.414 167.322,299.414C189.303,299.414 207.39,317.501 207.39,339.482C207.39,350.035 203.221,360.172 195.796,367.672Z" style="fill:rgb(58,44,96);fill-rule:nonzero;"/>
                </g>
            </g>
        </g>
    </g>
</svg>
