<?xml version="1.0" encoding="UTF-8" standalone="no"?>
<!DOCTYPE svg PUBLIC "-//W3C//DTD SVG 1.1//EN" "http://www.w3.org/Graphics/SVG/1.1/DTD/svg11.dtd">
<svg width="100%" height="100%" viewBox="0 0 953 620" version="1.1" xmlns="http://www.w3.org/2000/svg" xmlns:xlink="http://www.w3.org/1999/xlink" xml:space="preserve" xmlns:serif="http://www.serif.com/" style="fill-rule:evenodd;clip-rule:evenodd;stroke-linecap:round;stroke-linejoin:round;stroke-miterlimit:1.5;">
    <g transform="matrix(1,0,0,1,-283.418,-102.583)">
        <g id="Icons-Group-L" serif:id="Icons Group L" transform="matrix(2.29106,0,0,2.29106,-2338.04,-208.085)">
            <g id="HTML" transform="matrix(-0.772716,0,0,0.772716,1615.54,-229.213)">
                <path d="M564.944,592L453.005,592L453.005,473.137L596.654,473.137L596.654,592L586,592" style="fill:rgb(254,254,254);stroke:rgb(0,128,128);stroke-width:2.04px;"/>
                <g transform="matrix(-1,0,0,1,1049.45,-7.82845)">
                    <path d="M530.543,528.229L518.708,562.917" style="fill:none;stroke:rgb(0,128,128);stroke-width:2.04px;"/>
                </g>
                <g transform="matrix(1,0,0,1,0.0969644,-6.25514)">
                    <path d="M509.322,527.821L493.143,544L509.322,560.179" style="fill:rgb(254,254,254);stroke:rgb(0,128,128);stroke-width:2.04px;"/>
                </g>
                <g transform="matrix(-1,0,0,1,1049.56,-6.25514)">
                    <path d="M509.322,527.821L493.143,544L509.322,560.179" style="fill:rgb(254,254,254);stroke:rgb(0,128,128);stroke-width:2.04px;"/>
                </g>
                <g transform="matrix(1,0,0,1,0,-17)">
                    <path d="M453.005,501L596.654,501" style="fill:none;stroke:rgb(0,128,128);stroke-width:2.04px;"/>
                </g>
            </g>
            <g id="Desktop" transform="matrix(1.97326,0,0,1.97326,-440.364,-706.385)">
                <path d="M910,549L910,563.267L946,563.267L946,549" style="fill:rgb(254,254,254);stroke:rgb(0,128,128);stroke-width:.8px;"/>
                <rect x="856.634" y="441.247" width="143.649" height="107.753" style="fill:rgb(254,254,254);stroke:rgb(0,128,128);stroke-width:.8px;"/>
                <path d="M939,452.591L949.344,452.591" style="fill:none;stroke:rgb(0,128,128);stroke-width:.8px;"/>
                <path d="M939,452.591L949.344,452.591" style="fill:none;stroke:rgb(0,128,128);stroke-width:.8px;"/>
                <g transform="matrix(5.75354,0,0,1,-4520.77,9.6943)">
                    <path d="M939,452.591L949.344,452.591" style="fill:none;stroke:rgb(0,128,128);stroke-width:.8px;"/>
                </g>
                <path d="M894.995,563.267L962,563.267" style="fill:none;stroke:rgb(0,128,128);stroke-width:0.8px;"/>
                <g transform="matrix(1,0,0,1,0,4.56097)">
                    <path d="M856.634,534L1000.28,534" style="fill:none;stroke:rgb(0,128,128);stroke-width:0.8px;"/>
                </g>
                <g transform="matrix(1,0,0,1,0,0.506775)">
                    <path d="M868.378,452.591L927.895,452.591" style="fill:none;stroke:rgb(0,128,128);stroke-width:0.8px;"/>
                </g>
            </g>
            <g id="Phone" transform="matrix(1,0,0,1,726.761,129.653)">
                <rect x="771.007" y="164.312" width="61.379" height="111.125" style="fill:rgb(254,254,254);stroke:rgb(0,128,128);stroke-width:1.58px;"/>
                <path d="M816,173L821,173" style="fill:none;stroke:rgb(0,128,128);stroke-width:1.58px;"/>
                <path d="M771.007,268L832.386,268" style="fill:none;stroke:rgb(0,128,128);stroke-width:1.58px;"/>
                <path d="M780,173L808,173" style="fill:none;stroke:rgb(0,128,128);stroke-width:1.58px;"/>
            </g>
            <g id="Drawing-Pad" serif:id="Drawing Pad" transform="matrix(1,0,0,1,418,-8.68821)">
                <path d="M735.174,293.389C730.66,293.389 727,297.049 727,301.563C727,323.527 727,383.64 727,405.604C727,410.118 730.66,413.778 735.174,413.778C761.314,413.778 842.686,413.778 868.826,413.778C873.34,413.778 877,410.118 877,405.604C877,383.64 877,323.527 877,301.563C877,297.049 873.34,293.389 868.826,293.389C842.686,293.389 761.314,293.389 735.174,293.389Z" style="fill:rgb(254,254,254);stroke:rgb(0,128,128);stroke-width:1.58px;"/>
                <g transform="matrix(1,0,0,1,-478,-186.374)">
                    <path d="M1205,498L1355,498" style="fill:none;stroke:rgb(0,128,128);stroke-width:1.58px;"/>
                </g>
                <g transform="matrix(1,0,0,1,-478,-186.374)">
                    <path d="M1326.66,479.763L1326.66,474C1326.66,472.674 1326.14,471.402 1325.2,470.464C1324.26,469.527 1322.99,469 1321.66,469C1305.39,469 1255,469 1255,469" style="fill:none;stroke:rgb(0,128,128);stroke-width:1.58px;"/>
                </g>
                <g id="pen" transform="matrix(0.965926,0.258819,-0.258819,0.965926,-245.5,-495.98)">
                    <path d="M1280,581C1276.67,581 1276,580 1276,580L1276,519L1280,515L1284,519L1284,580C1284,580 1283.33,581 1280,581Z" style="fill:rgb(254,254,254);stroke:rgb(0,128,128);stroke-width:1.58px;"/>
                    <g transform="matrix(1,0,0,0.75,0,128.75)">
                        <path d="M1280,511L1280,515" style="fill:none;stroke:rgb(0,128,128);stroke-width:1.78px;"/>
                    </g>
                    <path d="M1276,525.152L1284,525.152" style="fill:none;stroke:rgb(0,128,128);stroke-width:1.58px;"/>
                </g>
                <g id="btns" transform="matrix(1,0,0,1,-478,-186.374)">
                    <path d="M1215,489L1219,489" style="fill:none;stroke:rgb(0,128,128);stroke-width:1.58px;"/>
                    <g transform="matrix(1,0,0,1,12.8686,0)">
                        <path d="M1215,489L1219,489" style="fill:none;stroke:rgb(0,128,128);stroke-width:1.58px;"/>
                    </g>
                    <g transform="matrix(1,0,0,1,25.7373,0)">
                        <path d="M1215,489L1219,489" style="fill:none;stroke:rgb(0,128,128);stroke-width:1.58px;"/>
                    </g>
                </g>
            </g>
        </g>
    </g>
</svg>
