<?xml version="1.0" encoding="UTF-8" standalone="no"?>
<!DOCTYPE svg PUBLIC "-//W3C//DTD SVG 1.1//EN" "http://www.w3.org/Graphics/SVG/1.1/DTD/svg11.dtd">
<svg version="1.1" xmlns="http://www.w3.org/2000/svg" xmlns:xlink="http://www.w3.org/1999/xlink" preserveAspectRatio="xMidYMid meet" viewBox="227.46405469099162 70.41509433962261 249.75170914577623 324.35462847487634" width="245.75" height="320.35"><defs><path d="M232.36 391.77C323.56 390.33 380.56 389.43 403.37 389.07C453.69 388.28 487.65 337.37 469.06 290.6C462.02 272.89 476.76 309.97 469.06 290.6C447.23 235.67 398.13 196.25 339.78 186.81C316.69 183.07 358.6 189.85 339.78 186.81C280.03 177.14 226.36 224.51 228.53 285C229.04 299.24 230.31 334.83 232.36 391.77Z" id="hE1VeKl1W"></path><path d="M280.31 94.67C280.31 107.5 277.36 117.92 261.87 117.92C246.38 117.92 233.8 107.5 233.8 94.67C233.8 81.84 246.38 71.42 261.87 71.42C277.36 71.42 280.31 81.84 280.31 94.67Z" id="ah7RZcf5h"></path><path d="M390.44 140.84C402.17 146.06 417.05 158.17 410.75 172.32C404.45 186.48 392.33 177.54 380.6 172.32C368.88 167.1 341.36 169.5 347.66 155.35C353.96 141.2 378.72 135.62 390.44 140.84Z" id="f3FFybH50y"></path></defs><g><g><use xlink:href="#hE1VeKl1W" opacity="1" fill="#008080" fill-opacity="1"></use><g><use xlink:href="#hE1VeKl1W" opacity="1" fill-opacity="0" stroke="#000000" stroke-width="0" stroke-opacity="1"></use></g></g><g><use xlink:href="#ah7RZcf5h" opacity="1" fill="#008080" fill-opacity="1"></use></g><g><use xlink:href="#f3FFybH50y" opacity="1" fill="#008080" fill-opacity="1"></use></g></g></svg>