<?xml version="1.0" encoding="UTF-8" standalone="no"?>
<!DOCTYPE svg PUBLIC "-//W3C//DTD SVG 1.1//EN" "http://www.w3.org/Graphics/SVG/1.1/DTD/svg11.dtd">
<svg version="1.1" xmlns="http://www.w3.org/2000/svg" xmlns:xlink="http://www.w3.org/1999/xlink" preserveAspectRatio="xMidYMid meet" viewBox="232.11165248929365 128.64589780978557 229.94762827128687 266.12382500471347" width="225.95" height="262.12"><defs><path d="M459.06 391.77C412.81 391.77 383.9 391.77 372.34 391.77C318.19 391.77 270.09 357.17 252.87 305.83C244.79 281.75 250.57 298.98 242.79 275.78C229.32 235.63 264.37 195.96 305.88 204.39C336.51 210.61 363.22 216.03 400.9 223.68C434.74 230.55 459.06 260.3 459.06 294.83C459.06 307.76 459.06 340.07 459.06 391.77Z" id="a2SRE4oQvh"></path><path d="M289.6 152.16C289.6 164.59 286.1 174.68 270.52 174.68C254.93 174.68 233.11 164.59 233.11 152.16C233.11 139.74 245.77 129.65 261.36 129.65C276.94 129.65 289.6 139.74 289.6 152.16Z" id="cYlzpNx93"></path></defs><g><g><use xlink:href="#a2SRE4oQvh" opacity="1" fill="#008080" fill-opacity="1"></use><g><use xlink:href="#a2SRE4oQvh" opacity="1" fill-opacity="0" stroke="#000000" stroke-width="0" stroke-opacity="1"></use></g></g><g><use xlink:href="#cYlzpNx93" opacity="1" fill="#008080" fill-opacity="1"></use></g></g></svg>